<?xml version="1.0" encoding="UTF-8"?> <svg xmlns="http://www.w3.org/2000/svg" version="1.1" id="Capa_1" x="0" y="0" viewBox="0 0 193.3 82.5" xml:space="preserve" width="120"><style>.st0{fill:#fff}</style><path class="st0" d="M60.8 28.3h5.6l6.3 9.6H76l-6.5-10c1.6-.4 2.9-1.2 3.8-2.3.9-1.1 1.4-2.5 1.4-4.2 0-2.1-.7-3.7-2.1-5-1.4-1.2-3.3-1.8-5.7-1.8H58V38h2.8v-9.7zm0-10.9h5.9c3.3 0 4.9 1.4 4.9 4.2 0 2.8-1.6 4.2-4.9 4.2h-5.9v-8.4zM90.3 38.3c3 0 5.2-.8 6.8-2.3 1.6-1.5 2.3-3.8 2.3-6.7V14.7h-2.8v13.9c0 2.4-.5 4.2-1.5 5.4-1 1.1-2.6 1.7-4.8 1.7-2.2 0-3.7-.6-4.8-1.7-1-1.1-1.5-2.9-1.5-5.4V14.7h-2.8v14.6c0 3 .8 5.2 2.3 6.7 1.6 1.6 3.8 2.3 6.8 2.3zM109.4 23.4l-.3-6.2 7.7 20.8h2.4l7.6-20.8-.3 6.2V38h2.7V14.7h-4.3l-5.1 14.2-1.8 5.8h-.1l-1.7-5.9-5.1-14.1h-4.4V38h2.7zM151.3 36.2c1.5-1.2 2.3-2.8 2.3-4.8 0-1.3-.4-2.4-1.2-3.4-.8-1-1.9-1.6-3.3-1.9 1.2-.2 2.2-.8 2.9-1.8.7-.9 1-2 1-3.2 0-2-.7-3.6-2-4.7s-3.3-1.7-6-1.7h-8.3V38h8.2c2.8 0 4.9-.6 6.4-1.8zm-11.7-18.8h5.5c3.3 0 4.9 1.3 4.9 3.8 0 1.3-.4 2.2-1.2 2.9-.8.6-2 .9-3.7.9h-5.5v-7.6zm0 10.2h6.1c1.6 0 2.9.3 3.7 1 .8.7 1.2 1.6 1.2 2.9 0 1.2-.4 2.2-1.2 2.9-.8.7-2.1 1-3.7 1h-6.1v-7.8zM163.4 36.9c1.6 1 3.5 1.5 5.7 1.5s4.1-.5 5.7-1.5c1.6-1 2.9-2.4 3.7-4.2.9-1.8 1.3-3.9 1.3-6.4 0-2.4-.4-4.6-1.3-6.4-.9-1.8-2.1-3.2-3.7-4.2s-3.5-1.5-5.7-1.5-4.1.5-5.7 1.5c-1.6 1-2.9 2.4-3.7 4.2-.9 1.8-1.3 3.9-1.3 6.4 0 2.4.4 4.6 1.3 6.4.9 1.8 2.1 3.2 3.7 4.2zm0-17.4c1.4-1.7 3.3-2.5 5.7-2.5 2.4 0 4.3.8 5.7 2.5 1.4 1.7 2.1 3.9 2.1 6.8s-.7 5.2-2.1 6.8c-1.4 1.7-3.3 2.5-5.7 2.5-2.4 0-4.3-.8-5.7-2.5-1.4-1.7-2.1-3.9-2.1-6.8s.7-5.1 2.1-6.8zM61.3 63h7.3l1.4 4.8h5.7l-7.4-21.2h-6.6l-7.4 21.2h5.6l1.4-4.8zm2.8-8.9.9-3.3.9 3.3 1.5 5.1h-5l1.7-5.1zM86.7 46.6v21.2h5.5v-7.3h4.2c2.6 0 4.7-.6 6.1-1.8 1.4-1.2 2.1-2.9 2.1-5 0-2.3-.7-4-2.1-5.2-1.4-1.2-3.4-1.8-6.1-1.8h-9.7zm12.4 6.9c0 1-.3 1.7-.9 2.1-.6.5-1.4.7-2.6.7h-3.3v-5.6h3.3c1.2 0 2.1.2 2.6.7.6.5.9 1.2.9 2.1zM108.2 46.6h5.5v21.2h-5.5zM122.3 47.6c-1.6.9-2.8 2.1-3.6 3.8-.8 1.6-1.3 3.6-1.3 5.8 0 2.3.4 4.2 1.3 5.9.8 1.6 2 2.9 3.6 3.8 1.6.9 3.4 1.3 5.6 1.3 2.3 0 4.3-.5 5.9-1.6 1.6-1.1 2.7-2.7 3.3-4.8l-5-1.4c-.3 1.2-.7 2.1-1.4 2.6-.7.6-1.6.8-2.8.8-1.6 0-2.8-.6-3.6-1.7-.8-1.1-1.2-2.8-1.2-4.9 0-2.1.4-3.8 1.3-4.9.9-1.1 2.1-1.7 3.6-1.7 1.1 0 2 .3 2.6.8.6.5 1.1 1.4 1.4 2.7l4.8-2c-.5-1.9-1.6-3.4-3.2-4.4-1.6-1-3.6-1.5-5.9-1.5-2 .1-3.8.5-5.4 1.4zM144.2 47.6c-1.6.9-2.8 2.1-3.6 3.8-.8 1.6-1.3 3.6-1.3 5.9 0 2.3.4 4.2 1.3 5.9.8 1.6 2 2.9 3.6 3.8 1.6.9 3.4 1.3 5.6 1.3 2.1 0 4-.4 5.5-1.3 1.6-.9 2.7-2.1 3.6-3.8.8-1.6 1.3-3.6 1.3-5.9 0-2.3-.4-4.2-1.3-5.9-.8-1.6-2-2.9-3.6-3.8-1.6-.9-3.4-1.3-5.5-1.3-2.2 0-4.1.4-5.6 1.3zm9 4.7c.8 1.1 1.2 2.7 1.2 4.9s-.4 3.8-1.2 4.9c-.8 1.1-2 1.7-3.5 1.7s-2.7-.6-3.5-1.7c-.8-1.1-1.2-2.7-1.2-4.9s.4-3.8 1.2-4.9c.8-1.1 2-1.7 3.5-1.7 1.6 0 2.7.5 3.5 1.7zM171.9 46.3c-1.9 0-3.5.3-4.9.9-1.4.6-2.4 1.4-3.1 2.5-.7 1-1.1 2.2-1.1 3.6 0 1.3.3 2.4 1 3.3.7.9 1.6 1.5 2.8 2 1.2.5 2.7.9 4.5 1.3 1.5.3 2.5.6 3.2.9.6.3.9.7.9 1.2 0 .6-.3 1.1-.9 1.4-.6.3-1.5.5-2.6.5-1.5 0-2.7-.2-3.8-.7-1-.5-2-1.3-2.8-2.4l-2.8 3.9c1.1 1.2 2.4 2.1 3.9 2.7 1.5.6 3.4.9 5.8.9 1.7 0 3.2-.3 4.6-.8 1.4-.5 2.4-1.3 3.2-2.2.8-1 1.2-2.1 1.2-3.5 0-1.9-.6-3.3-1.9-4.3-1.3-1-3.3-1.8-6.3-2.3-1.5-.3-2.6-.6-3.2-.9-.6-.3-.9-.8-.9-1.3 0-.6.3-1.2.9-1.5.6-.4 1.5-.6 2.6-.6 1.3 0 2.5.3 3.4.8 1 .5 1.8 1.3 2.5 2.4l3.1-3.6c-1.2-1.3-2.5-2.3-4-2.9-1.5-1-3.2-1.3-5.3-1.3z"></path><path class="st0" d="M0 82.5h193.3V0H0v82.5zM13.1 35l20.7 7.2H4.6l8.6-7-.1-.2zM9.6 55.2h.1L3 74.4h-.6v-28l7.2 8.8zM2.3 2.3H191v77.9H2.7l1.2-3.5c5.4-.4 10.7-2.1 15.4-4.8l-1.2-2c-4.1 2.4-8.7 3.9-13.4 4.4l6.8-19.8 31.4-10.8-30.4-10.5L3.7 7.7c6.8.5 13.4 3.1 18.7 7.5l1.5-1.8C18 8.5 10.6 5.7 2.9 5.3l-.6-1.6V2.3z"></path><path class="st0" d="m13.3 32.1 6.4 1.8 14.2-22.8L11 25.3l2.3 6.8zm5.7 0-4.5-1.3-1.6-4.8 16.3-10.1L19 32.1zM12.6 56.1l-2.3 6.8 22.8 14.2-14.2-22.8zM28.9 22.4c3.2 4.7 5.1 10.1 5.6 15.7l2.3-.2c-.5-6-2.6-11.8-6-16.8l-1.9 1.3zM26.6 62.7l1.7 1.5c3.7-4.4 6.4-9.6 7.6-15.2l-2.2-.5c-1.1 5.2-3.6 10.1-7.1 14.2z"></path></svg> 